<svg xmlns="http://www.w3.org/2000/svg" viewBox="0 0 32 32"><title>BUSINESS</title><g id="_07.PODIUM" data-name="07.PODIUM"><path d="M29.06,16.77H21.34v-1.7a1,1,0,0,0-1-1H11.62a1,1,0,0,0-1,1v3.69H2.9a1,1,0,0,0-1,1v5.63a1,1,0,0,0,1,1H29.06a1,1,0,0,0,1-1V17.77A1,1,0,0,0,29.06,16.77Zm-1,7.62H3.9V20.76h7.72a1,1,0,0,0,1-1V16.07h6.72v1.7a1,1,0,0,0,1,1h7.72Z"/><path d="M17.75,10.21H16.67V5.86H15.5a.72.72,0,0,1-.11.35.66.66,0,0,1-.27.23,1.3,1.3,0,0,1-.39.1,3.85,3.85,0,0,1-.49,0v.86h1.11v2.77H14.25v.92h3.5Z"/><path d="M26.89,13H24.54l.46-.35q.32-.25.64-.54a3.87,3.87,0,0,0,.76-.92,1.91,1.91,0,0,0,.25-.94,1.41,1.41,0,0,0-.52-1.17,2.36,2.36,0,0,0-1.5-.41,4.46,4.46,0,0,0-1,.11,4.34,4.34,0,0,0-.74.22v1.17H23a3.11,3.11,0,0,1,.66-.34,2,2,0,0,1,.68-.13,1,1,0,0,1,.66.2.69.69,0,0,1,.23.55,1.2,1.2,0,0,1-.18.61,3.65,3.65,0,0,1-.61.72q-.29.28-.76.66t-.95.73V14h4.12Z"/><path d="M6.68,15.92a3.46,3.46,0,0,0,1-.12,2.17,2.17,0,0,0,.7-.34,1.42,1.42,0,0,0,.45-.55,1.65,1.65,0,0,0,.15-.69,1.15,1.15,0,0,0-.1-.52,1.13,1.13,0,0,0-.27-.35,1.19,1.19,0,0,0-.37-.21,1.81,1.81,0,0,0-.38-.1v0a1.2,1.2,0,0,0,.72-.44,1.23,1.23,0,0,0,.27-.78,1.15,1.15,0,0,0-.14-.58,1.17,1.17,0,0,0-.43-.42,2.18,2.18,0,0,0-.62-.23,3.92,3.92,0,0,0-.87-.09,4.76,4.76,0,0,0-1,.11,5.06,5.06,0,0,0-.79.22v1.14h.13a3.33,3.33,0,0,1,.75-.33,2.56,2.56,0,0,1,.72-.11l.32,0a1.06,1.06,0,0,1,.32.08.57.57,0,0,1,.2.15.38.38,0,0,1,.08.26.57.57,0,0,1-.08.33.53.53,0,0,1-.23.18,1.15,1.15,0,0,1-.36.08l-.49,0H6v.94h.74a1.45,1.45,0,0,1,.41.06.57.57,0,0,1,.28.18.53.53,0,0,1,.11.35.6.6,0,0,1-.29.57.94.94,0,0,1-.4.15,3.28,3.28,0,0,1-.44,0,2.55,2.55,0,0,1-.77-.13,3.37,3.37,0,0,1-.72-.32H4.8v1.15a4.2,4.2,0,0,0,.76.23A5.3,5.3,0,0,0,6.68,15.92Z"/></g></svg>